<svg width="16" height="16" viewBox="0 0 16 16" fill="none" xmlns="http://www.w3.org/2000/svg">
<path d="M15.74 0.260021C15.3933 -0.0864677 14.8314 -0.0864677 14.4848 0.260021L8 6.74487L1.51515 0.260021C1.16845 -0.0866738 0.606532 -0.0866738 0.260021 0.260021C-0.0866738 0.606717 -0.0866738 1.16864 0.260021 1.51515L6.74487 8L0.260021 14.4848C-0.0866738 14.8315 -0.0866738 15.3935 0.260021 15.74C0.606717 16.0867 1.16864 16.0867 1.51515 15.74L8 9.25513L14.4848 15.74C14.8315 16.0867 15.3935 16.0867 15.74 15.74C16.0867 15.3933 16.0867 14.8314 15.74 14.4848L9.25513 8L15.74 1.51515C16.0867 1.16845 16.0867 0.606532 15.74 0.260021Z" fill="black"/>
</svg>
